HIERARCHY
ROOT Hips
{
	OFFSET -0.001795 -0.223333 0.028219
	CHANNELS 6 Xposition Yposition Zposition Zrotation Yrotation Xrotation 
	JOINT LeftUpLeg
	{
		OFFSET 0.069520 -0.091406 -0.006815
		CHANNELS 3 Zrotation Yrotation Xrotation
		JOINT LeftLeg
		{
			OFFSET 0.034277 -0.375199 -0.004496
			CHANNELS 3 Zrotation Yrotation Xrotation
			JOINT LeftFoot
			{
				OFFSET -0.013596 -0.397961 -0.043693
				CHANNELS 3 Zrotation Yrotation Xrotation
				JOINT LeftToe
				{
					OFFSET 0.026358 -0.055791 0.119288
					CHANNELS 3 Zrotation Yrotation Xrotation
					End Site
					{
						OFFSET 0.000000 0.000000 0.000000
					}
				}
			}
		}
	}
	JOINT RightUpLeg
	{
		OFFSET -0.067670 -0.090522 -0.004320
		CHANNELS 3 Zrotation Yrotation Xrotation
		JOINT RightLeg
		{
			OFFSET -0.038290 -0.382569 -0.008850
			CHANNELS 3 Zrotation Yrotation Xrotation
			JOINT RightFoot
			{
				OFFSET 0.015774 -0.398415 -0.042312
				CHANNELS 3 Zrotation Yrotation Xrotation
				JOINT RightToe
				{
					OFFSET -0.025372 -0.048144 0.123348
					CHANNELS 3 Zrotation Yrotation Xrotation
					End Site
					{
						OFFSET 0.000000 0.000000 0.000000
					}
				}
			}
		}
	}
	JOINT Spine
	{
		OFFSET -0.002533 0.108963 -0.026696
		CHANNELS 3 Zrotation Yrotation Xrotation
		JOINT Spine1
		{
			OFFSET 0.005487 0.135180 0.001092
			CHANNELS 3 Zrotation Yrotation Xrotation
			JOINT Spine2
			{
				OFFSET 0.001457 0.052922 0.025425
				CHANNELS 3 Zrotation Yrotation Xrotation
				JOINT Neck
				{
					OFFSET -0.002778 0.213870 -0.042857
					CHANNELS 3 Zrotation Yrotation Xrotation
					JOINT Head
					{
						OFFSET 0.005152 0.064970 0.051349
						CHANNELS 3 Zrotation Yrotation Xrotation
						End Site
						{
							OFFSET 0.000000 0.000000 0.000000
						}
					}
				}
				JOINT LeftShoulder
				{
					OFFSET 0.078845 0.121749 -0.034090
					CHANNELS 3 Zrotation Yrotation Xrotation
					JOINT LeftArm
					{
						OFFSET 0.090977 0.030469 -0.008868
						CHANNELS 3 Zrotation Yrotation Xrotation
						JOINT LeftForeArm
						{
							OFFSET 0.259612 -0.012772 -0.027456
							CHANNELS 3 Zrotation Yrotation Xrotation
							JOINT LeftHand
							{
								OFFSET 0.249234 0.008986 -0.001171
								CHANNELS 3 Zrotation Yrotation Xrotation
								End Site
								{
									OFFSET 0.000000 0.000000 0.000000
								}
							}
						}
					}
				}
				JOINT RightShoulder
				{
					OFFSET -0.081759 0.118833 -0.038615
					CHANNELS 3 Zrotation Yrotation Xrotation
					JOINT RightArm
					{
						OFFSET -0.096012 0.032551 -0.009143
						CHANNELS 3 Zrotation Yrotation Xrotation
						JOINT RightForeArm
						{
							OFFSET -0.253742 -0.013329 -0.021401
							CHANNELS 3 Zrotation Yrotation Xrotation
							JOINT RightHand
							{
								OFFSET -0.255298 0.007772 -0.005559
								CHANNELS 3 Zrotation Yrotation Xrotation
								End Site
								{
									OFFSET 0.000000 0.000000 0.000000
								}
							}
						}
					}
				}
			}
		}
	}
}
MOTION
Frames: 16
Frame Time: 0.050000
-0.000417 0.928996 0.107223 -2.426109 -1.533027 -9.833561 6.563218 0.242222 3.870830 0.595249 -1.014129 23.420912 0.831884 0.239786 -3.366943 0.000000 0.000000 0.000000 2.318931 -0.329788 2.802378 -0.927884 1.519024 26.130296 -3.876628 -8.061476 -5.040110 0.000000 0.000000 0.000000 3.582495 0.839335 -10.118302 -5.671112 2.681574 -2.599478 -6.631521 4.944462 10.675100 10.076645 -11.708809 9.804160 0.000000 0.000000 0.000000 -9.481994 -5.338259 0.835508 -64.076577 -23.024512 3.997248 27.193484 -47.336176 -10.590112 0.000000 0.000000 0.000000 -20.820657 8.998286 1.728066 -31.298563 51.614653 -15.022597 -65.843284 -15.550920 11.459759 0.000000 0.000000 0.000000 
0.000099 0.928672 0.108292 -2.357056 -1.777194 -10.173183 6.359450 0.263641 4.094106 0.539596 -1.009936 24.164874 0.729530 0.089271 -3.213906 0.000000 0.000000 0.000000 2.017894 -0.334505 2.920987 -0.674586 1.479054 26.594063 -4.001152 -8.429009 -4.910175 0.000000 0.000000 0.000000 3.703513 0.832469 -9.761721 -5.673779 2.675114 -2.828812 -7.217647 5.148510 11.103678 10.412605 -12.100011 9.784837 0.000000 0.000000 0.000000 -9.999203 -5.336615 0.773131 -63.413794 -22.727525 3.723632 28.193007 -48.530240 -11.374641 0.000000 0.000000 0.000000 -22.165202 8.395735 1.501593 -32.190475 50.369846 -14.789417 -67.155480 -18.807014 13.800214 0.000000 0.000000 0.000000 
0.000391 0.927752 0.109417 -2.199828 -1.659198 -10.702999 5.918361 0.297224 4.571083 0.458547 -1.017132 24.790932 0.831089 0.292417 -3.264771 0.000000 0.000000 0.000000 1.796884 -0.396341 3.533447 -0.435225 1.417077 27.099434 -4.075208 -8.562358 -5.153804 0.000000 0.000000 0.000000 3.421538 0.776917 -9.386856 -5.764566 2.720393 -2.805604 -7.571833 5.211687 11.775207 9.941221 -11.892692 10.485062 0.000000 0.000000 0.000000 -10.154956 -5.803983 0.950165 -62.957358 -22.734082 3.613059 30.229791 -48.730007 -12.388745 0.000000 0.000000 0.000000 -22.494854 8.077129 1.368943 -32.763384 49.116772 -14.439906 -69.785497 -20.991041 15.929819 0.000000 0.000000 0.000000 
0.000597 0.927027 0.110108 -1.968873 -1.722625 -11.138082 5.437594 0.330593 4.918450 0.401625 -1.005266 25.158580 0.719272 -0.116280 -3.580703 0.000000 0.000000 0.000000 1.307085 -0.426835 3.957464 -0.027527 1.302933 27.487109 -4.130932 -8.752454 -5.022825 0.000000 0.000000 0.000000 3.285951 0.739403 -9.010421 -5.876292 2.779408 -2.663611 -7.953652 5.057112 12.328103 10.068166 -11.982567 10.296857 0.000000 0.000000 0.000000 -10.616149 -5.558343 0.836614 -62.178455 -22.766545 3.537804 31.765783 -49.064566 -13.153486 0.000000 0.000000 0.000000 -22.697240 7.846154 1.323608 -33.373474 48.604011 -14.516278 -73.166361 -23.193713 18.414762 0.000000 0.000000 0.000000 
0.000869 0.927053 0.109846 -1.670625 -2.072093 -11.482023 5.278051 0.352962 5.035956 -0.128269 -0.809260 25.680237 0.775111 0.148061 -3.338147 0.000000 0.000000 0.000000 0.871017 -0.436397 4.210623 0.372384 1.207080 27.692479 -4.294538 -9.086620 -5.234734 0.000000 0.000000 0.000000 3.228241 0.702627 -8.499839 -5.953526 2.808994 -2.819250 -8.141828 5.010386 13.074647 9.420199 -11.096199 9.719321 0.000000 0.000000 0.000000 -10.915156 -5.635488 0.904015 -61.743707 -23.543386 3.885218 34.256799 -47.715061 -13.785769 0.000000 0.000000 0.000000 -22.622964 7.848201 1.338787 -34.086318 48.518255 -14.866224 -75.245686 -25.205892 20.434166 0.000000 0.000000 0.000000 
0.001462 0.927548 0.108017 -1.519733 -2.477373 -11.602912 4.911459 0.356460 4.759871 -0.022594 -0.826896 26.212171 0.563886 -0.227796 -3.147992 0.000000 0.000000 0.000000 0.421507 -0.411854 4.146565 0.646723 1.148843 27.718827 -4.274909 -9.031809 -5.082781 0.000000 0.000000 0.000000 3.550911 0.721497 -8.230370 -5.944207 2.824301 -2.305663 -8.427570 4.674094 13.398719 9.218661 -11.365416 11.303131 0.000000 0.000000 0.000000 -11.875126 -6.132330 1.134506 -60.550839 -24.393552 4.281490 36.433192 -45.579113 -13.933067 0.000000 0.000000 0.000000 -22.873075 7.558673 1.365167 -35.742688 49.307885 -16.071751 -76.394633 -28.055606 22.785286 0.000000 0.000000 0.000000 
0.002481 0.928593 0.104499 -1.119571 -3.039449 -11.520576 4.399144 0.344608 4.203394 -0.343703 -0.662761 26.605121 0.858130 0.716533 -2.622837 0.000000 0.000000 0.000000 -0.344129 -0.316786 3.447144 0.986137 1.114621 28.229687 -4.175590 -8.615100 -5.244144 0.000000 0.000000 0.000000 3.511644 0.684781 -7.752900 -5.907659 2.796235 -2.491624 -8.355799 4.669053 14.060221 8.332267 -10.615194 12.079056 0.000000 0.000000 0.000000 -12.489121 -7.521818 1.815988 -59.330185 -25.755305 4.858757 39.119938 -42.031804 -13.710012 0.000000 0.000000 0.000000 -22.552316 8.061024 1.491976 -37.814775 50.848561 -17.886245 -77.197181 -29.604615 24.067677 0.000000 0.000000 0.000000 
0.004088 0.929387 0.099495 -0.910962 -3.821501 -11.618681 4.028747 0.330477 3.679697 -0.233428 -0.634297 26.877450 0.819550 0.996814 -1.844781 0.000000 0.000000 0.000000 -0.580812 -0.227490 2.588212 0.744889 1.329155 29.013805 -4.137189 -8.567196 -4.846072 0.000000 0.000000 0.000000 3.828014 0.694377 -7.388570 -5.724540 2.729173 -1.986182 -8.446524 4.229653 14.060393 7.550161 -9.839008 12.767328 0.000000 0.000000 0.000000 -13.021345 -7.856043 2.103449 -59.199071 -26.771788 5.450312 40.390423 -38.786991 -12.837317 0.000000 0.000000 0.000000 -22.667657 8.951596 1.771141 -39.575530 53.093761 -20.205937 -77.339265 -31.771255 25.568490 0.000000 0.000000 0.000000 
0.005951 0.929779 0.093787 -0.686713 -4.063614 -11.897872 3.820395 0.317091 3.337822 -0.684196 -0.448347 27.299149 1.135346 1.917064 -1.324953 0.000000 0.000000 0.000000 -0.853732 -0.167086 1.978855 0.728913 1.424489 29.921042 -4.124910 -8.498925 -4.856718 0.000000 0.000000 0.000000 3.902590 0.642009 -6.586847 -5.546295 2.676705 -1.265512 -8.226137 4.017541 14.149582 6.781239 -9.310964 14.108275 0.000000 0.000000 0.000000 -13.400126 -9.160135 2.777331 -59.384475 -28.092909 6.214382 42.355923 -36.335619 -12.552547 0.000000 0.000000 0.000000 -21.538584 9.693445 1.993696 -41.474224 55.886794 -22.938753 -79.436460 -32.610730 27.058738 0.000000 0.000000 0.000000 
0.007623 0.930085 0.087545 -0.525111 -4.468812 -12.091784 3.328921 0.277657 2.651804 -0.450605 -0.496281 27.796417 1.090568 1.864441 -1.232594 0.000000 0.000000 0.000000 -0.615039 -0.094184 1.137451 0.316112 1.685119 30.707665 -4.068245 -8.298373 -4.853355 0.000000 0.000000 0.000000 4.104959 0.640649 -6.300401 -5.034159 2.463533 -0.381716 -8.140599 3.844674 14.312801 6.572182 -9.674502 16.486611 0.000000 0.000000 0.000000 -13.483076 -10.149704 3.331536 -59.761466 -29.399852 7.014455 43.449180 -34.921181 -12.279318 0.000000 0.000000 0.000000 -20.462091 10.879301 2.302308 -42.697114 59.166942 -25.825703 -80.086271 -32.482211 27.206765 0.000000 0.000000 0.000000 
0.008808 0.930462 0.080970 -0.420089 -4.199921 -12.390810 3.074723 0.244064 2.191431 -0.576420 -0.481058 28.615933 1.046854 1.949463 -0.759948 0.000000 0.000000 0.000000 -0.669791 -0.039271 0.514549 0.200376 1.791866 31.843728 -3.966471 -8.290969 -4.238742 0.000000 0.000000 0.000000 3.618783 0.550075 -5.691324 -4.378191 2.179717 0.745555 -7.815149 3.471556 14.329188 5.689114 -9.321970 19.289256 0.000000 0.000000 0.000000 -13.724508 -11.805157 4.175989 -59.606119 -30.942744 7.871381 45.764902 -34.264579 -12.738862 0.000000 0.000000 0.000000 -18.564007 11.878779 2.635267 -43.934362 62.956100 -29.217643 -82.672144 -30.571413 26.850955 0.000000 0.000000 0.000000 
0.009600 0.930132 0.073440 -0.228224 -4.328832 -12.935839 2.466183 0.197369 1.579809 -0.036646 -0.684042 29.454058 0.730209 1.279552 -0.720538 0.000000 0.000000 0.000000 -0.696682 -0.038477 0.507943 -0.334683 2.056302 32.176567 -3.981891 -8.265599 -4.364155 0.000000 0.000000 0.000000 3.461154 0.525765 -5.473340 -4.132586 2.099739 2.021400 -7.321648 3.536284 14.918930 5.352550 -9.415764 21.210589 0.000000 0.000000 0.000000 -12.816481 -13.163058 4.833691 -59.735548 -33.280263 9.173890 47.210209 -33.669388 -12.918195 0.000000 0.000000 0.000000 -17.399082 12.602485 2.845538 -42.972272 66.634912 -31.202395 -82.724648 -27.930809 24.770065 0.000000 0.000000 0.000000 
0.010232 0.930418 0.064449 -0.022521 -4.692965 -13.290280 1.982267 0.154221 1.073496 0.183003 -0.739079 30.492903 0.553368 1.056942 -0.335242 0.000000 0.000000 0.000000 -0.728812 0.005906 0.020580 -0.563515 2.264404 32.915032 -3.791683 -8.002309 -3.657820 0.000000 0.000000 0.000000 3.495754 0.465530 -4.585029 -3.837743 1.970570 2.650177 -7.172908 3.733622 15.581922 4.616311 -8.919663 22.949574 0.000000 0.000000 0.000000 -12.654805 -15.104797 5.761959 -57.767518 -35.589791 9.955742 48.186654 -33.237350 -13.052134 0.000000 0.000000 0.000000 -16.784355 13.527888 3.029470 -41.999377 70.276961 -33.096007 -82.727528 -25.418342 22.775498 0.000000 0.000000 0.000000 
0.011010 0.930858 0.053156 -0.089724 -5.134800 -13.458400 1.686925 0.092544 0.354048 1.041616 -1.044660 30.872621 0.762065 1.493580 -0.377586 0.000000 0.000000 0.000000 -0.219602 0.083952 -0.793297 -1.063903 2.608016 33.803440 -3.636235 -7.625620 -3.496323 0.000000 0.000000 0.000000 3.878891 0.448011 -3.932045 -3.604584 1.913069 4.478991 -6.566323 3.680374 15.496070 4.530927 -9.225691 24.820734 0.000000 0.000000 0.000000 -11.487131 -17.004688 6.601665 -56.073269 -38.159367 10.972873 50.708183 -31.050514 -12.902441 0.000000 0.000000 0.000000 -16.083783 14.857449 3.375521 -40.781808 73.496242 -34.586537 -81.127456 -21.429261 19.013846 0.000000 0.000000 0.000000 
0.011861 0.932397 0.039542 0.218919 -5.846797 -13.454309 0.836723 -0.007974 -0.526446 1.594029 -1.176712 31.183057 0.495878 0.984006 -0.231212 0.000000 0.000000 0.000000 -0.107427 0.195722 -1.946439 -1.584572 2.991391 34.411184 -3.209810 -6.636285 -3.062959 0.000000 0.000000 0.000000 4.112779 0.362957 -2.654336 -3.382057 1.820194 4.948923 -6.246588 4.303988 16.619185 3.849965 -8.612157 25.855401 0.000000 0.000000 0.000000 -10.739167 -18.875674 7.375409 -54.386454 -40.557491 11.679807 54.113603 -30.373124 -13.647695 0.000000 0.000000 0.000000 -15.412716 16.239136 3.626616 -38.825248 76.096310 -34.846124 -78.376487 -18.343143 15.821237 0.000000 0.000000 0.000000 
0.012590 0.933566 0.024097 0.061338 -5.751089 -12.693384 0.829616 -0.209718 -2.810699 2.585529 -1.615240 32.013511 0.460723 1.062759 0.169472 0.000000 0.000000 0.000000 0.452733 0.395665 -3.815635 -1.564160 2.982744 34.609447 -3.317906 -6.979691 -2.952793 0.000000 0.000000 0.000000 4.324712 0.272550 -1.507582 -3.158025 1.726071 5.887324 -5.486511 4.082835 16.966424 3.623829 -8.528371 27.012642 0.000000 0.000000 0.000000 -9.287782 -20.653958 8.031189 -52.737702 -43.548687 12.767567 57.910834 -28.241986 -13.701322 0.000000 0.000000 0.000000 -14.132258 18.907871 4.338625 -33.192515 77.069012 -31.119109 -74.858703 -14.670457 12.251536 0.000000 0.000000 0.000000 
